<?xml version="1.0" encoding="UTF-8" standalone="no"?>
<svg width="512" height="512" viewBox="0 0 512 512" xmlns="http://www.w3.org/2000/svg">
  <rect width="512" height="512" rx="120" fill="#3b82f6"/>
  <g transform="translate(256, 256) scale(0.8)">
    <!-- Trophy shape -->
    <path d="M-128,-85 L128,-85 L128,-40 L150,-40 C166,-40 180,-26 180,-10 L180,30 C180,52 162,70 140,70 L120,70 C108,110 72,140 72,140 L72,170 L108,170 L108,200 L-108,200 L-108,170 L-72,170 L-72,140 C-72,140 -108,110 -120,70 L-140,70 C-162,70 -180,52 -180,30 L-180,-10 C-180,-26 -166,-40 -150,-40 L-128,-40 Z" fill="#ffffff"/>
    
    <!-- Detail lines -->
    <path d="M-100,-60 L100,-60 M-90,-35 L90,-35 M-80,-10 L80,-10 M-70,15 L70,15 M-60,40 L60,40" stroke="#3b82f6" stroke-width="12" stroke-linecap="round"/>
    
    <!-- CC letters -->
    <path d="M-35,95 C-20,85 0,100 -10,120 C-25,150 -60,150 -70,120 C-80,90 -60,70 -35,95 Z" fill="#3b82f6"/>
    <path d="M35,95 C20,85 0,100 10,120 C25,150 60,150 70,120 C80,90 60,70 35,95 Z" fill="#3b82f6"/>
  </g>
</svg>