<svg xmlns="http://www.w3.org/2000/svg" width="800" height="400" viewBox="0 0 800 400">
  <rect width="800" height="400" fill="#1E1E1E" />
  <rect x="150" y="120" width="500" height="160" fill="#000000" stroke="#4B5563" stroke-width="3" />
  <circle cx="400" cy="200" r="70" fill="#4B5563" />
  <circle cx="400" cy="200" r="60" fill="#6B7280" />
  <circle cx="400" cy="200" r="50" fill="#9CA3AF" />
  <circle cx="400" cy="200" r="40" fill="#E5E7EB" />
  <rect x="130" y="140" width="20" height="20" fill="#D1D5DB" />
  <rect x="130" y="170" width="20" height="20" fill="#D1D5DB" />
  <rect x="130" y="200" width="20" height="20" fill="#D1D5DB" />
  <rect x="130" y="230" width="20" height="20" fill="#D1D5DB" />
  <rect x="130" y="260" width="20" height="20" fill="#D1D5DB" />
  <rect x="650" y="140" width="20" height="20" fill="#D1D5DB" />
  <rect x="650" y="170" width="20" height="20" fill="#D1D5DB" />
  <rect x="650" y="200" width="20" height="20" fill="#D1D5DB" />
  <rect x="650" y="230" width="20" height="20" fill="#D1D5DB" />
  <rect x="650" y="260" width="20" height="20" fill="#D1D5DB" />
  <text x="400" y="320" font-family="Arial, sans-serif" font-size="28" text-anchor="middle" fill="#F9FAFB">
    Film Competition
  </text>
</svg>