<svg xmlns="http://www.w3.org/2000/svg" width="800" height="400" viewBox="0 0 800 400">
  <rect width="800" height="400" fill="#F8FAFC" />
  <path d="M300,250 L500,250 L500,170 L400,120 L300,170 Z" fill="#E2E8F0" stroke="#64748B" stroke-width="2" />
  <path d="M350,250 L350,190 L380,190 L380,250" fill="#CBD5E1" stroke="#64748B" stroke-width="1" />
  <path d="M420,250 L420,190 L450,190 L450,250" fill="#CBD5E1" stroke="#64748B" stroke-width="1" />
  <path d="M370,150 L430,150 L430,110 L370,110 Z" fill="#F1F5F9" stroke="#64748B" stroke-width="1" />
  <line x1="400" y1="110" x2="400" y2="80" stroke="#64748B" stroke-width="2" />
  <path d="M380,80 L420,80 L410,60 L390,60 Z" fill="#F8FAFC" stroke="#64748B" stroke-width="1" />
  <circle cx="400" cy="170" r="25" fill="#F1F5F9" stroke="#64748B" stroke-width="1" />
  <path d="M390,160 L410,160 M390,170 L410,170 M390,180 L410,180" stroke="#64748B" stroke-width="1" />
  <rect x="300" y="250" width="200" height="20" fill="#CBD5E1" stroke="#64748B" stroke-width="1" />
  <text x="400" y="320" font-family="Arial, sans-serif" font-size="28" text-anchor="middle" fill="#334155">
    Startup Challenge
  </text>
</svg>